<svg preserveAspectRatio="none" width="100%" height="100%" overflow="visible" style="display: block;" viewBox="0 0 28 28" fill="none" xmlns="http://www.w3.org/2000/svg">
<g id="info">
<mask id="mask0_1298_169" style="mask-type:alpha" maskUnits="userSpaceOnUse" x="0" y="0" width="28" height="28">
<rect id="Bounding box" width="28" height="28" fill="var(--fill-0, #D9D9D9)"/>
</mask>
<g mask="url(#mask0_1298_169)">
<path id="info_2" d="M14.5407 19.3515C14.6648 19.2245 14.7268 19.0673 14.7268 18.8799V13.4951C14.7268 13.3077 14.6629 13.1505 14.5349 13.0235C14.407 12.8967 14.2485 12.8333 14.0595 12.8333C13.8703 12.8333 13.7136 12.8967 13.5893 13.0235C13.4653 13.1505 13.4032 13.3077 13.4032 13.4951V18.8799C13.4032 19.0673 13.4672 19.2245 13.5952 19.3515C13.7231 19.4783 13.8817 19.5417 14.0709 19.5417C14.2599 19.5417 14.4165 19.4783 14.5407 19.3515ZM14.562 10.7447C14.7168 10.5967 14.7942 10.4134 14.7942 10.1946C14.7942 9.95954 14.7182 9.76471 14.5661 9.61012C14.4139 9.45554 14.2254 9.37825 14.0006 9.37825C13.7692 9.37825 13.5788 9.45612 13.4295 9.61187C13.2804 9.76743 13.2058 9.96032 13.2058 10.1905C13.2058 10.4105 13.2827 10.5948 13.4365 10.7435C13.5903 10.8923 13.7777 10.9667 13.9985 10.9667C14.2194 10.9667 14.4073 10.8927 14.562 10.7447ZM14.0096 25.0833C12.4745 25.0833 11.0358 24.7924 9.69354 24.2107C8.35149 23.6289 7.17753 22.8345 6.17167 21.8275C5.16581 20.8204 4.37179 19.6462 3.78962 18.3047C3.20765 16.9634 2.91667 15.5262 2.91667 13.993C2.91667 12.4598 3.20756 11.0203 3.78933 9.67458C4.37111 8.32883 5.16551 7.15711 6.17254 6.15942C7.17957 5.16172 8.35382 4.37179 9.69529 3.78962C11.0366 3.20765 12.4738 2.91667 14.007 2.91667C15.5402 2.91667 16.9797 3.20755 18.3254 3.78933C19.6712 4.37111 20.8429 5.16065 21.8406 6.15796C22.8383 7.15526 23.6282 8.32806 24.2104 9.67633C24.7923 11.0246 25.0833 12.4626 25.0833 13.9904C25.0833 15.5255 24.7924 16.9642 24.2107 18.3065C23.6289 19.6485 22.8393 20.8207 21.842 21.8231C20.8447 22.8252 19.6719 23.6192 18.3237 24.2048C16.9754 24.7905 15.5374 25.0833 14.0096 25.0833ZM14.009 23.7595C16.7192 23.7595 19.0218 22.809 20.9169 20.9081C22.8119 19.007 23.7595 16.7013 23.7595 13.991C23.7595 11.2808 22.8141 8.97818 20.9233 7.08312C19.0323 5.18807 16.7246 4.24054 14 4.24054C11.2957 4.24054 8.99296 5.18593 7.09187 7.07671C5.19099 8.96768 4.24054 11.2754 4.24054 14C4.24054 16.7043 5.19099 19.007 7.09187 20.9081C8.99296 22.809 11.2987 23.7595 14.009 23.7595Z" fill="var(--fill-0, white)"/>
</g>
</g>
</svg>
